<svg width="150" height="150" viewBox="0 0 150 150" fill="none" xmlns="http://www.w3.org/2000/svg">
<path d="M24.7041 150H125.296C126.745 150 127.92 148.824 127.92 147.376V16.3626C127.92 14.9142 126.745 13.7386 125.296 13.7386H111.379C109.931 13.7386 108.755 14.9142 108.755 16.3626C108.755 17.811 109.931 18.9867 111.379 18.9867H122.672V144.753H27.3278V18.9863H38.6238C40.0722 18.9863 41.2479 17.8107 41.2479 16.3623C41.2479 14.9139 40.0722 13.7383 38.6238 13.7383H24.7041C23.2557 13.7383 22.0801 14.9139 22.0801 16.3623V147.376C22.0801 148.825 23.2528 150 24.7041 150Z" fill="#010002"/>
<path d="M49.1167 36.1599H100.884C102.332 36.1599 103.508 34.9843 103.508 33.5359V10.4745C103.508 9.0261 102.332 7.85046 100.884 7.85046H92.343V2.62403C92.343 1.17563 91.1674 0 89.719 0H60.2788C58.8304 0 57.6547 1.17563 57.6547 2.62403V7.85337H49.1167C47.6683 7.85337 46.4927 9.029 46.4927 10.4774V33.5388C46.4927 34.9843 47.6683 36.1599 49.1167 36.1599ZM51.7404 13.0985H60.2784C61.7268 13.0985 62.9025 11.9229 62.9025 10.4745V5.24774H87.0975V10.4771C87.0975 11.9255 88.2732 13.1011 89.7216 13.1011H98.2596V30.9147H51.7404V13.0985Z" fill="#010002"/>
<path d="M74.9987 20.7049C77.7085 20.7049 79.9052 18.5082 79.9052 15.7984C79.9052 13.0886 77.7085 10.8918 74.9987 10.8918C72.2889 10.8918 70.0922 13.0886 70.0922 15.7984C70.0922 18.5082 72.2889 20.7049 74.9987 20.7049Z" fill="#010002"/>
</svg>
